<svg width="385" height="372" viewBox="0 0 385 372" fill="none" xmlns="http://www.w3.org/2000/svg">
<path d="M231.883 33.8389C251.058 39.8846 260.922 43.6739 276.568 51.2822L311.472 37.793L346.979 71.3994L332.365 105.123C341.662 121.706 345.344 131.169 349.998 148.265C361.459 152.485 384.346 160.923 384.298 160.94C384.201 160.94 384.258 193.734 384.298 210.13L350.119 223.618C344.984 240.583 340.882 249.863 331.641 266.063L346.496 300.251L310.506 334.091L276.689 321.066C260.583 329.548 250.609 333.07 231.642 337.812L217.148 372H167.391L152.777 337.812C134.671 333.523 124.672 329.671 107.005 321.066L72.8262 334.323L37.9229 300.367L52.415 266.877C43.8761 250.251 39.7838 240.629 33.5752 223.037L0 210.362V161.754L34.7832 147.8C39.8228 130.048 43.7273 120.714 52.5361 105.123L37.8018 71.6328L72.8262 37.793L107.971 50.8174C123.945 42.812 133.277 38.6862 152.415 33.7227L166.907 0H217.148L231.883 33.8389ZM192.103 54C119.144 54 60 113.144 60 186.103C60.0001 259.06 119.145 318.204 192.103 318.204C265.06 318.204 324.204 259.06 324.204 186.103C324.204 113.145 265.06 54.0001 192.103 54Z" fill="url(#paint0_linear_742_1202)"/>
<defs>
<linearGradient id="paint0_linear_742_1202" x1="4.5" y1="372" x2="384" y2="372" gradientUnits="userSpaceOnUse">
<stop stop-color="#E6E6E6"/>
<stop offset="1" stop-color="#E6E6E6" stop-opacity="0"/>
</linearGradient>
</defs>
</svg>
