<svg width="19" height="20" viewBox="0 0 19 20" fill="none" xmlns="http://www.w3.org/2000/svg">
<path d="M9 0C11.2091 0 13 1.79086 13 4V7H11.5V4C11.5 2.61929 10.3807 1.5 9 1.5H4C2.61929 1.5 1.5 2.61929 1.5 4V16C1.5 17.3807 2.61929 18.5 4 18.5H9C10.3807 18.5 11.5 17.3807 11.5 16V13H13V16C13 18.14 11.3194 19.8879 9.20605 19.9951L9 20H4L3.79395 19.9951C1.7488 19.8913 0.108652 18.2512 0.00488281 16.2061L0 16V4C0 1.79086 1.79086 8.0532e-08 4 0H9Z" fill="#6B6B6B"/>
<path d="M18 10H6" stroke="#6B6B6B" stroke-width="1.5" stroke-linecap="round" stroke-linejoin="round"/>
<path d="M8 7L6 10L8 13" stroke="#6B6B6B" stroke-width="1.5" stroke-linecap="round" stroke-linejoin="round"/>
</svg>
